<svg width="1920" height="308" viewBox="0 0 1920 308" fill="none" xmlns="http://www.w3.org/2000/svg">
<path d="M1920 76.8H1843.2V153.6H1920V76.8Z" fill="#BAFFE6"/>
<path d="M1920 0H1843.2V76.8H1920V0Z" fill="#BAFFE6"/>
<path d="M1843.2 0H1766.4V76.8H1843.2V0Z" fill="#77FFCE"/>
<path d="M1766.4 0H1689.6V76.8H1766.4V0Z" fill="#77FFCE"/>
<path d="M1689.6 0H1612.8V76.8H1689.6V0Z" fill="#BAFFE6"/>
<path d="M1612.8 76.8H1536V153.6H1612.8V76.8Z" fill="#77FFCE"/>
<path d="M1612.8 0H1536V76.8H1612.8V0Z" fill="#77FFCE"/>
<path d="M1536 0H1459.2V76.8H1536V0Z" fill="#77FFCE"/>
<path d="M1459.2 230.4H1382.4V307.2H1459.2V230.4Z" fill="#77FFCE"/>
<path d="M1459.2 0H1382.4V76.8H1459.2V0Z" fill="#BAFFE6"/>
<path d="M1382.4 0H1305.6V76.8H1382.4V0Z" fill="#77FFCE"/>
<path d="M1305.6 76.8H1228.8V153.6H1305.6V76.8Z" fill="#77FFCE"/>
<path d="M1305.6 0H1228.8V76.8H1305.6V0Z" fill="#BAFFE6"/>
<path d="M1228.8 76.8H1152V153.6H1228.8V76.8Z" fill="#77FFCE"/>
<path d="M1228.8 0H1152V76.8H1228.8V0Z" fill="#77FFCE"/>
<path d="M1152 0H1075.2V76.8H1152V0Z" fill="#77FFCE"/>
<path d="M921.6 0H844.8V76.8H921.6V0Z" fill="#77FFCE"/>
<path d="M844.8 76.8H768V153.6H844.8V76.8Z" fill="#BAFFE6"/>
<path d="M844.8 0H768V76.8H844.8V0Z" fill="#77FFCE"/>
<path d="M768 0H691.2V76.8H768V0Z" fill="#77FFCE"/>
<path d="M614.4 0H537.6V76.8H614.4V0Z" fill="#77FFCE"/>
<path d="M537.6 76.8H460.8V153.6H537.6V76.8Z" fill="#BAFFE6"/>
<path d="M537.6 0H460.8V76.8H537.6V0Z" fill="#77FFCE"/>
<path d="M460.8 0H384V76.8H460.8V0Z" fill="#BAFFE6"/>
<path d="M306.8 76.8H230V153.6H306.8V76.8Z" fill="#BAFFE6"/>
<path d="M307.2 0H230.4V76.8H307.2V0Z" fill="#77FFCE"/>
<path d="M230.4 0H153.6V76.8H230.4V0Z" fill="#77FFCE"/>
<path d="M153.6 76.8H76.8V153.6H153.6V76.8Z" fill="#BAFFE6"/>
<path d="M153.6 0H76.8V76.8H153.6V0Z" fill="#77FFCE"/>
<path d="M76.8 0H0V76.8H76.8V0Z" fill="#BAFFE6"/>
<path d="M1818.4 178.4H1766.4V230.4H1818.4V178.4Z" fill="#FFD541"/>
<path d="M76.7801 166.92H13.3201V230.38H76.7801V166.92Z" fill="#FF52A5"/>
<path d="M460.8 153.6H408.8V205.6H460.8V153.6Z" fill="#BAFFE6"/>
</svg>
