<svg width="54" height="70" viewBox="0 0 54 70" fill="none" xmlns="http://www.w3.org/2000/svg">
<g clip-path="url(#clip0_1883_738)">
<path d="M50.5605 10.1851V7.33876H47.7142V4.49243H16.4045V7.33876H13.5612V10.1851H10.7149V24.4138H13.5612V27.2601H16.4045V30.1064H13.5612V35.7991H10.7149V41.4917H7.86853V55.7234H10.7149V64.2594H16.4045V61.4131H19.2509V58.5697H22.0972V58.5727H24.9435V58.5697H30.6362V58.5727H33.4825V55.7234H39.1752V52.8771H42.0215V50.0307H44.8678V47.1844H47.7142V41.4917H50.5605V30.1064H47.7142V27.2601H50.5605V24.4138H53.4038V10.1851H50.5605Z" fill="#03452E"/>
<path d="M33.9554 15.4288H34.9042V13.5373H35.85V12.5915H37.7416V11.6427H41.8689V12.5915H43.7635V13.5373H44.7093V15.4288H45.658V19.1701H44.7093V21.0646H43.7635V22.0134H41.8689V22.9562H37.7416V22.0134H35.85V21.0646H34.9042V19.1701H33.9554V15.4288Z" fill="#F3FFFB"/>
<path d="M18.4607 15.4318H19.4095V13.5402H20.3553V12.5944H22.2498V11.6456H26.3742V12.5944H28.2687V13.5402H29.2145V15.4318H30.1633V19.173H29.2145V21.0646H28.2687V22.0133H26.3742V22.9591H22.2498V22.0133H20.3553V21.0646H19.4095V19.173H18.4607V15.4318Z" fill="#F3FFFB"/>
<path d="M47.7112 32.9557H44.8649H42.0185H39.1752V35.802H36.3289V38.6484H33.4825V41.4947H30.6362V44.338H27.7899V47.1844H24.9436V50.0307H22.0972V52.877H19.2509V55.7234H16.4046H13.5582V52.877H16.4046H19.2509V50.0307H22.0972V47.1844H24.9436V44.338H27.7899V41.4947V38.6484V35.802V32.9557H24.9436H22.0972H19.2509H16.4046V30.1094H19.2509H22.0972H24.9436H27.7899H30.6362V32.9557V35.802V38.6484H33.4825V35.802H36.3289V32.9557H39.1752V30.1094H42.0185H44.8649H47.7112V32.9557Z" fill="#F3FFFB"/>
<path d="M24.3121 20.2894C26.0121 20.2894 27.2482 18.9545 27.2482 17.3024C27.2482 15.6502 26.0121 14.3184 24.3121 14.3184C22.6121 14.3184 21.376 15.6532 21.376 17.3024C21.376 18.9515 22.6121 20.2894 24.3121 20.2894Z" fill="#03452E"/>
<path d="M39.8067 20.2894C41.5067 20.2894 42.7428 18.9516 42.7428 17.2994C42.7428 15.6473 41.5067 14.3154 39.8067 14.3154C38.1067 14.3154 36.8706 15.6533 36.8706 17.2994C36.8706 18.9456 38.1067 20.2894 39.8067 20.2894Z" fill="#03452E"/>
<path d="M0.947403 2.42481L0.00012207 4.06555L5.94618 7.49851L6.89346 5.85777L0.947403 2.42481Z" fill="#03452E"/>
<path d="M9.12869 -0.00137166L7.34839 0.646606L8.69041 4.33378L10.4707 3.6858L9.12869 -0.00137166Z" fill="#03452E"/>
<path d="M5.5159 9.79163L0.687866 10.6429L1.01685 12.5087L5.84489 11.6574L5.5159 9.79163Z" fill="#03452E"/>
<path d="M16.4046 61.416V64.2623H13.5582H10.7119V61.416H13.5582H16.4046Z" fill="#016844"/>
<path d="M19.2509 58.5697H16.4045V61.413H19.2509V58.5697Z" fill="#016844"/>
<path d="M22.0972 55.7234H19.2509V58.5697H22.0972V55.7234Z" fill="#016844"/>
<path d="M36.263 55.7234V58.5697H29.1757H22.0883V55.7234H29.1757H36.263Z" fill="#016844"/>
<path d="M36.3289 52.8771H39.1752V55.7234H36.3289H33.4825V52.8771H36.3289Z" fill="#016844"/>
<path d="M42.0215 50.0308H39.1752V52.8771H42.0215V50.0308Z" fill="#016844"/>
<path d="M44.8649 47.1844H42.0186V50.0308H44.8649V47.1844Z" fill="#016844"/>
<path d="M44.8649 41.4948H47.7112V44.3381V47.1844H44.8649V44.3381V41.4948Z" fill="#016844"/>
<path d="M47.7112 27.2631H44.8649V30.1094H47.7112V27.2631Z" fill="#016844"/>
<path d="M47.7112 35.802V32.9557V30.1094H50.5575V32.9557V35.802V38.6484V41.4947H47.7112V38.6484V35.802Z" fill="#016844"/>
<path d="M50.5575 24.4167H47.7112V27.2631H50.5575V24.4167Z" fill="#016844"/>
<path d="M50.5575 7.33875H47.7112V10.1851H50.5575V7.33875Z" fill="#016844"/>
<path d="M50.5575 18.7241V15.8777V13.0314V10.1851H53.4038V13.0314V15.8777V18.7241V21.5704V24.4167H50.5575V21.5704V18.7241Z" fill="#016844"/>
<path d="M50.6085 55.7054H47.7472V58.5637H50.6085V55.7054Z" fill="#03452E"/>
<path d="M47.7472 58.5608H44.8859V61.4221H47.7472V58.5608Z" fill="#03452E"/>
<path d="M44.8858 61.422H42.0245V64.2833H44.8858V61.422Z" fill="#03452E"/>
<path d="M42.0275 64.2804H39.1692V67.1417H42.0275V64.2804Z" fill="#03452E"/>
<path d="M42.0275 58.5608H39.1692V61.4221H42.0275V58.5608Z" fill="#03452E"/>
<path d="M39.1693 55.7054H36.308V58.5637H39.1693V55.7054Z" fill="#03452E"/>
<path d="M36.3109 55.7054H30.6212V58.5637H36.3109V55.7054Z" fill="#016844"/>
<path d="M36.3109 52.8441H33.4496V55.7054H36.3109V52.8441Z" fill="#03452E"/>
<path d="M33.4497 67.1416H30.5884V70.0029H33.4497V67.1416Z" fill="#03452E"/>
<path d="M30.5913 67.1416H27.73V70.0029H30.5913V67.1416Z" fill="#03452E"/>
<path d="M30.5913 58.5608H27.73V61.4221H30.5913V58.5608Z" fill="#03452E"/>
<path d="M30.5913 55.7054H27.73V58.5637H30.5913V55.7054Z" fill="#03452E"/>
<path d="M27.73 67.1416H24.8717V70.0029H27.73V67.1416Z" fill="#03452E"/>
<path d="M27.73 64.2804H24.8717V67.1417H27.73V64.2804Z" fill="#03452E"/>
<path d="M27.73 61.422H24.8717V64.2833H27.73V61.422Z" fill="#03452E"/>
<path d="M24.8718 67.1416H22.0105V70.0029H24.8718V67.1416Z" fill="#03452E"/>
</g>
<defs>
<clipPath id="clip0_1883_738">
<rect width="53.4039" height="70" fill="white"/>
</clipPath>
</defs>
</svg>
