<svg width="1920" height="384" viewBox="0 0 1920 384" fill="none" xmlns="http://www.w3.org/2000/svg">
<path d="M1920 230.4H1843.2V307.2H1920V230.4Z" fill="#BAFFE6"/>
<path d="M1920 76.8H1843.2V153.6H1920V76.8Z" fill="#F3FFFB"/>
<path d="M1920 0H1843.2V76.8H1920V0Z" fill="#77FFCE"/>
<path d="M1843.2 76.8H1766.4V153.6H1843.2V76.8Z" fill="#0DFFA8"/>
<path d="M1843.2 0H1766.4V76.8H1843.2V0Z" fill="#F3FFFB"/>
<path d="M1766.4 76.8H1689.6V153.6H1766.4V76.8Z" fill="#77FFCE"/>
<path d="M1766.4 0H1689.6V76.8H1766.4V0Z" fill="#0DFFA8"/>
<path d="M1689.6 0H1612.8V76.8H1689.6V0Z" fill="#07B979"/>
<path d="M1536 76.8H1459.2V153.6H1536V76.8Z" fill="#77FFCE"/>
<path d="M1536 0H1459.2V76.8H1536V0Z" fill="#07B979"/>
<path d="M1382.4 0H1305.6V76.8H1382.4V0Z" fill="#07B979"/>
<path d="M1305.6 0H1228.8V76.8H1305.6V0Z" fill="#0DFFA8"/>
<path d="M1228.8 0H1152V76.8H1228.8V0Z" fill="#F3FFFB"/>
<path d="M921.6 0H844.8V76.8H921.6V0Z" fill="#07B979"/>
<path d="M844.8 0H768V76.8H844.8V0Z" fill="#F3FFFB"/>
<path d="M768 0H691.2V76.8H768V0Z" fill="#0DFFA8"/>
<path d="M691.2 0H614.4V76.8H691.2V0Z" fill="#07B979"/>
<path d="M537.6 0H460.8V76.8H537.6V0Z" fill="#07B979"/>
<path d="M460.8 0H384V76.8H460.8V0Z" fill="#77FFCE"/>
<path d="M307.2 0H230.4V76.8H307.2V0Z" fill="#07B979"/>
<path d="M230.4 76.8H153.6V153.6H230.4V76.8Z" fill="#F3FFFB"/>
<path d="M153.6 153.6H76.8V230.4H153.6V153.6Z" fill="#77FFCE"/>
<path d="M153.6 0H76.8V76.8H153.6V0Z" fill="#07B979"/>
<path d="M76.8 76.8H0V153.6H76.8V76.8Z" fill="#77FFCE"/>
<path d="M76.8 0H0V76.8H76.8V0Z" fill="#0DFFA8"/>
<path d="M1050.4 76.8H998.4V128.8H1050.4V76.8Z" fill="#77FFCE"/>
<path d="M52 332H0V384H52V332Z" fill="#F3FFFB"/>
</svg>
