<svg width="38" height="13" viewBox="0 0 38 13" fill="none" xmlns="http://www.w3.org/2000/svg">
<rect width="2" height="5.35714" transform="matrix(-4.37114e-08 1 1 4.37114e-08 16.0715 11)" fill="#0DFFA8"/>
<rect width="2" height="5.35714" transform="matrix(-4.37114e-08 1 1 4.37114e-08 13.3928 10)" fill="#0DFFA8"/>
<rect width="2" height="13.3929" transform="matrix(-4.37114e-08 1 1 4.37114e-08 10.7144 8)" fill="#0DFFA8"/>
<rect width="2" height="16.0714" transform="matrix(-4.37114e-08 1 1 4.37114e-08 8.03564 6)" fill="#0DFFA8"/>
<rect width="2" height="24.1071" transform="matrix(-4.37114e-08 1 1 4.37114e-08 5.35718 4)" fill="#0DFFA8"/>
<rect width="2" height="29.4643" transform="matrix(-4.37114e-08 1 1 4.37114e-08 2.67847 2)" fill="#0DFFA8"/>
<rect width="2" height="32.1429" transform="matrix(-4.37114e-08 1 1 4.37114e-08 0 0)" fill="#0DFFA8"/>
<rect width="2" height="5.35714" transform="matrix(-4.37114e-08 1 1 4.37114e-08 18.75 10)" fill="#0DFFA8"/>
<rect width="2" height="5.35714" transform="matrix(-4.37114e-08 1 1 4.37114e-08 21.4285 8)" fill="#0DFFA8"/>
<rect width="2" height="5.35714" transform="matrix(-4.37114e-08 1 1 4.37114e-08 24.1072 6)" fill="#0DFFA8"/>
<rect width="2" height="5.35714" transform="matrix(-4.37114e-08 1 1 4.37114e-08 26.7856 4)" fill="#0DFFA8"/>
<rect width="2" height="5.35714" transform="matrix(-4.37114e-08 1 1 4.37114e-08 29.4644 2)" fill="#0DFFA8"/>
<rect width="2" height="5.35714" transform="matrix(-4.37114e-08 1 1 4.37114e-08 32.1428 0)" fill="#0DFFA8"/>
</svg>
