<svg width="1920" height="232" viewBox="0 0 1920 232" fill="none" xmlns="http://www.w3.org/2000/svg">
<path d="M1920 154.4H1843.2V231.2H1920V154.4Z" fill="#77FFCE"/>
<path d="M1920 77.6H1843.2V154.4H1920V77.6Z" fill="#77FFCE"/>
<path d="M1843.2 154.4H1766.4V231.2H1843.2V154.4Z" fill="#77FFCE"/>
<path d="M1766.4 154.4H1689.6V231.2H1766.4V154.4Z" fill="#77FFCE"/>
<path d="M1766.4 77.6H1689.6V154.4H1766.4V77.6Z" fill="#77FFCE"/>
<path d="M1689.6 154.4H1612.8V231.2H1689.6V154.4Z" fill="#77FFCE"/>
<path d="M1612.8 77.6H1536V154.4H1612.8V77.6Z" fill="#F3FFFB"/>
<path d="M1459.2 154.4H1382.4V231.2H1459.2V154.4Z" fill="#BAFFE6"/>
<path d="M1382.4 154.4H1305.6V231.2H1382.4V154.4Z" fill="#77FFCE"/>
<path d="M1305.6 154.4H1228.8V231.2H1305.6V154.4Z" fill="#BAFFE6"/>
<path d="M1228.8 77.6H1152V154.4H1228.8V77.6Z" fill="#BAFFE6"/>
<path d="M1152 154.4H1075.2V231.2H1152V154.4Z" fill="#77FFCE"/>
<path d="M1075.2 154.4H998.4V231.2H1075.2V154.4Z" fill="#77FFCE"/>
<path d="M998.4 154.4H921.6V231.2H998.4V154.4Z" fill="#BAFFE6"/>
<path d="M921.6 154.4H844.8V231.2H921.6V154.4Z" fill="#77FFCE"/>
<path d="M844.8 77.6H768V154.4H844.8V77.6Z" fill="#77FFCE"/>
<path d="M768 154.4H691.2V231.2H768V154.4Z" fill="#77FFCE"/>
<path d="M768 77.6H691.2V154.4H768V77.6Z" fill="#77FFCE"/>
<path d="M614.4 154.4H537.6V231.2H614.4V154.4Z" fill="#77FFCE"/>
<path d="M460.8 154.4H384V231.2H460.8V154.4Z" fill="#BAFFE6"/>
<path d="M384 77.6H307.2V154.4H384V77.6Z" fill="#FFD541"/>
<path d="M307.2 154.4H230.4V231.2H307.2V154.4Z" fill="#77FFCE"/>
<path d="M230.4 154.4H153.6V231.2H230.4V154.4Z" fill="#77FFCE"/>
<path d="M153.6 154.4H76.8V231.2H153.6V154.4Z" fill="#BAFFE6"/>
<path d="M153.6 77.6H76.8V154.4H153.6V77.6Z" fill="#77FFCE"/>
<path d="M76.8 154.4H0V231.2H76.8V154.4Z" fill="#77FFCE"/>
<path d="M282 0.800049H230V52.8H282V0.800049Z" fill="#77FFCE"/>
<path d="M384 154.4H307.2V231.2H384V154.4Z" fill="#77FFCE"/>
</svg>
