<svg xmlns="http://www.w3.org/2000/svg" width="310" height="107" fill="none"><g fill="#fff" clip-path="url(#a)"><path d="m235.476 67.758 27.302-.952-.646-18.5-4.172.145-.146-4.172-8.343.292-.146-4.172-16.686.583.146 4.171-8.343.291.145 4.171-4.172.146.291 8.34-4.172.147.575 16.469 4.173-.146.291 8.341 4.172-.146.146 4.172 8.343-.291.146 4.17 16.686-.581-.146-4.172 8.344-.291-.146-4.171 4.172-.146-.301-8.662-4.173.146c-8.343.291-7.927 6.059-17.555 6.394-5.027.175-11.247-2.391-11.396-6.67-.1-2.887 2.083-4.783 5.611-4.906Zm-4.235-10.542c1.212-2.219 3.932-4.85 10.033-5.062 6.1-.213 8.997 2.22 10.362 4.35.851 1.33-.093 3.08-1.672 3.135l-8.418.294-8.419.295c-1.577.054-2.642-1.624-1.886-3.01v-.002ZM.878 43.318l12.456-1.309.872 8.3 4.151-.436-.437-4.15 4.151-.437-.436-4.15L38.137 39.4l.437 4.15 4.151-.437.872 8.3 4.151-.436 3.904 37.138-12.456 1.309-2.863-27.243c-.616-5.854-5.02-9.911-11.409-9.24-6.388.672-9.86 5.558-9.246 11.411l2.863 27.243-12.456 1.309L.878 43.318ZM167.009 39.966l12.515.437-.291 8.342 4.172.146.146-4.172 4.172.146.146-4.171 16.583.579-.146 4.17 4.173.147-.292 8.342 4.173.146-1.304 37.32-12.515-.437.956-27.376c.205-5.882-3.592-10.513-10.012-10.737-6.418-.224-10.54 4.131-10.745 10.013l-.956 27.376-12.516-.437 1.741-49.832v-.002ZM279.836 86.155l-8.345-.291.145-4.172-4.172-.145.314-8.981 5.774.202c8.772.306 5.88 6.416 16.253 6.78 3.746.13 6.798-1.373 6.906-4.472.093-2.673-2.112-3.931-5.737-4.485l-9.366-1.504c-9.375-1.505-13.446-7.535-13.251-13.094l.265-7.594 4.172.146.146-4.171 8.345.29.146-4.17 15.615.545-.145 4.172 8.345.29-.146 4.172 4.173.145-.307 8.77-3.215-.113c-10.905-.38-8.333-6.608-18.392-6.959-4.381-.152-6.902 1.363-6.983 3.72-.093 2.672 1.809 3.38 5.859 4.056l9.696 1.516c8.732 1.377 12.699 7.4 12.457 14.354l-.272 7.806-4.172-.146-.146 4.171-8.345-.29-.145 4.17-15.616-.545.145-4.171-.001-.002ZM103.015 67.695l-.872-8.3-4.152.436-.437-4.15-8.303.872-.436-4.15-18.097 1.9.437 4.151-8.303.872.437 4.15-4.152.437.872 8.3-4.151.437 1.723 16.385 4.151-.437.872 8.3 4.152-.436.437 4.15 8.302-.871.437 4.15 18.097-1.902-.437-4.15 8.303-.872-.437-4.15 4.152-.437-.872-8.3 4.151-.437-1.723-16.385-4.151.437Zm-11.07 19.404c-2.02 2.226-4.815 3.781-8.198 4.136-3.38.354-6.436-.584-8.874-2.34-3.022-2.109-5.18-5.422-5.594-9.372-.416-3.949 1.002-7.634 3.516-10.325 2.02-2.228 4.817-3.784 8.2-4.14 3.386-.356 6.446.586 8.885 2.347 3.016 2.11 5.167 5.419 5.581 9.365.416 3.95-1.004 7.638-3.52 10.329h.004ZM156.929 45.736l.291-8.342-4.172-.146.146-4.171-8.345-.291.145-4.172-18.186-.634-.146 4.17-8.345-.29-.145 4.17-4.173-.145-.291 8.343-4.173-.146-.575 16.466 4.172.146-.291 8.342 4.173.146-.146 4.171 8.345.291-.146 4.172 18.187.635.145-4.172 8.345.291.146-4.17 4.172.145.292-8.343 4.172.146.576-16.466-4.173-.146Zm-13.663 17.675c-2.311 1.924-5.294 3.075-8.692 2.956-3.397-.12-6.292-1.474-8.463-3.553-2.698-2.508-4.374-6.088-4.235-10.06.138-3.967 2.056-7.42 4.92-9.735 2.31-1.926 5.297-3.076 8.695-2.959 3.403.12 6.301 1.477 8.473 3.56 2.694 2.51 4.362 6.086 4.224 10.052-.139 3.97-2.057 7.423-4.922 9.737v.002ZM173.7 10.36l-3.198-2.682-11.751 14 3.198 2.682 11.751-14ZM157.498 13.303l-4.111-.724-1.27 7.2 4.111.724 1.27-7.2ZM175.278 26.81l-1.428-3.922-10.306 3.75 1.427 3.921 10.307-3.75Z"/></g><defs><clipPath id="a"><path fill="#fff" d="M.878 7.676H309.27v96.216H.878z"/></clipPath></defs></svg>