<svg width="1920" height="284" viewBox="0 0 1920 284" fill="none" xmlns="http://www.w3.org/2000/svg">
<path d="M1920 206.4H1843.2V283.2H1920V206.4Z" fill="#77FFCE"/>
<path d="M1843.2 129.6H1766.4V206.4H1843.2V129.6Z" fill="#0DFFA8"/>
<path d="M1766.4 129.6H1689.6V206.4H1766.4V129.6Z" fill="#F3FFFB"/>
<path d="M1689.6 206.4H1612.8V283.2H1689.6V206.4Z" fill="#77FFCE"/>
<path d="M1536 206.4H1459.2V283.2H1536V206.4Z" fill="#0DFFA8"/>
<path d="M1536 129.6H1459.2V206.4H1536V129.6Z" fill="#77FFCE"/>
<path d="M1459.2 129.6H1382.4V206.4H1459.2V129.6Z" fill="#77FFCE"/>
<path d="M1305.6 206.4H1228.8V283.2H1305.6V206.4Z" fill="#77FFCE"/>
<path d="M1305.6 52.8H1228.8V129.6H1305.6V52.8Z" fill="#0DFFA8"/>
<path d="M1228.8 206.4H1152V283.2H1228.8V206.4Z" fill="#77FFCE"/>
<path d="M1152 206.4H1075.2V283.2H1152V206.4Z" fill="#77FFCE"/>
<path d="M998.4 206.4H921.6V283.2H998.4V206.4Z" fill="#77FFCE"/>
<path d="M921.6 206.4H844.8V283.2H921.6V206.4Z" fill="#77FFCE"/>
<path d="M921.6 129.6H844.8V206.4H921.6V129.6Z" fill="#77FFCE"/>
<path d="M768 206.4H691.2V283.2H768V206.4Z" fill="#0DFFA8"/>
<path d="M691.2 206.4H614.4V283.2H691.2V206.4Z" fill="#BAFFE6"/>
<path d="M691.2 129.6H614.4V206.4H691.2V129.6Z" fill="#77FFCE"/>
<path d="M614.4 206.4H537.6V283.2H614.4V206.4Z" fill="#F3FFFB"/>
<path d="M537.6 206.4H460.8V283.2H537.6V206.4Z" fill="#77FFCE"/>
<path d="M537.6 129.6H460.8V206.4H537.6V129.6Z" fill="#77FFCE"/>
<path d="M460.8 206.4H384V283.2H460.8V206.4Z" fill="#0DFFA8"/>
<path d="M307.2 206.4H230.4V283.2H307.2V206.4Z" fill="#77FFCE"/>
<path d="M153.6 206.4H76.8V283.2H153.6V206.4Z" fill="#0DFFA8"/>
<path d="M76.8 206.4H0V283.2H76.8V206.4Z" fill="#F3FFFB"/>
<path d="M1843.2 0.800049H1791.2V52.8H1843.2V0.800049Z" fill="#77FFCE"/>
</svg>
