<svg width="1920" height="232" viewBox="0 0 1920 232" fill="none" xmlns="http://www.w3.org/2000/svg">
<path d="M1204 26H1152V78H1204V26Z" fill="#FF52A5"/>
<path d="M217.09 14.1201H153.63V77.5801H217.09V14.1201Z" fill="#FFD541"/>
<path d="M1843.2 77.6001H1766.4V154.4H1843.2V77.6001Z" fill="#4075FF"/>
<path d="M1920 154.4H1843.2V231.2H1920V154.4Z" fill="#BAFFE6"/>
<path d="M1920 77.6001H1843.2V154.4H1920V77.6001Z" fill="#77FFCE"/>
<path d="M1920 0.800049H1843.2V77.6H1920V0.800049Z" fill="#77FFCE"/>
<path d="M1843.2 154.4H1766.4V231.2H1843.2V154.4Z" fill="#77FFCE"/>
<path d="M1766.4 154.4H1689.6V231.2H1766.4V154.4Z" fill="#77FFCE"/>
<path d="M1612.8 77.6001H1536V154.4H1612.8V77.6001Z" fill="#BAFFE6"/>
<path d="M1459.2 154.4H1382.4V231.2H1459.2V154.4Z" fill="#77FFCE"/>
<path d="M1305.6 154.4H1228.8V231.2H1305.6V154.4Z" fill="#77FFCE"/>
<path d="M1228.8 154.4H1152V231.2H1228.8V154.4Z" fill="#77FFCE"/>
<path d="M1152 77.6001H1075.2V154.4H1152V77.6001Z" fill="#77FFCE"/>
<path d="M1075.2 154.4H998.4V231.2H1075.2V154.4Z" fill="#77FFCE"/>
<path d="M998.4 77.6001H921.6V154.4H998.4V77.6001Z" fill="#77FFCE"/>
<path d="M921.6 154.4H844.8V231.2H921.6V154.4Z" fill="#77FFCE"/>
<path d="M691.2 154.4H614.4V231.2H691.2V154.4Z" fill="#77FFCE"/>
<path d="M614.4 154.4H537.6V231.2H614.4V154.4Z" fill="#77FFCE"/>
<path d="M537.6 77.6001H460.8V154.4H537.6V77.6001Z" fill="#BAFFE6"/>
<path d="M460.8 154.4H384V231.2H460.8V154.4Z" fill="#77FFCE"/>
<path d="M460.8 77.6001H384V154.4H460.8V77.6001Z" fill="#77FFCE"/>
<path d="M384 154.4H307.2V231.2H384V154.4Z" fill="#77FFCE"/>
<path d="M153.6 154.4H76.8V231.2H153.6V154.4Z" fill="#77FFCE"/>
<path d="M76.8 154.4H0V231.2H76.8V154.4Z" fill="#BAFFE6"/>
<path d="M76.8 77.6001H0V154.4H76.8V77.6001Z" fill="#77FFCE"/>
</svg>
