<svg width="1920" height="384" viewBox="0 0 1920 384" fill="none" xmlns="http://www.w3.org/2000/svg">
<path d="M537.6 0H460.8V76.8H537.6V0Z" fill="#FF52A5"/>
<path d="M1305.6 178.4H1253.6V230.4H1305.6V178.4Z" fill="#FFD541"/>
<path d="M230.4 255.2H178.4V307.2H230.4V255.2Z" fill="#4075FF"/>
<path d="M1920 230.4H1843.2V307.2H1920V230.4Z" fill="#BAFFE6"/>
<path d="M1920 76.8H1843.2V153.6H1920V76.8Z" fill="#77FFCE"/>
<path d="M1843.2 76.8H1766.4V153.6H1843.2V76.8Z" fill="#77FFCE"/>
<path d="M1843.2 0H1766.4V76.8H1843.2V0Z" fill="#77FFCE"/>
<path d="M1766.4 0H1689.6V76.8H1766.4V0Z" fill="#BAFFE6"/>
<path d="M1612.8 0H1536V76.8H1612.8V0Z" fill="#77FFCE"/>
<path d="M1536 76.8H1459.2V153.6H1536V76.8Z" fill="#BAFFE6"/>
<path d="M1536 0H1459.2V76.8H1536V0Z" fill="#77FFCE"/>
<path d="M1459.2 76.8H1382.4V153.6H1459.2V76.8Z" fill="#77FFCE"/>
<path d="M1459.2 0H1382.4V76.8H1459.2V0Z" fill="#77FFCE"/>
<path d="M1382.4 0H1305.6V76.8H1382.4V0Z" fill="#77FFCE"/>
<path d="M1228.8 76.8H1152V153.6H1228.8V76.8Z" fill="#77FFCE"/>
<path d="M1228.8 0H1152V76.8H1228.8V0Z" fill="#77FFCE"/>
<path d="M1152 76.8H1075.2V153.6H1152V76.8Z" fill="#77FFCE"/>
<path d="M1152 0H1075.2V76.8H1152V0Z" fill="#77FFCE"/>
<path d="M1075.2 76.8H998.4V153.6H1075.2V76.8Z" fill="#BAFFE6"/>
<path d="M998.4 76.8H921.6V153.6H998.4V76.8Z" fill="#77FFCE"/>
<path d="M998.4 0H921.6V76.8H998.4V0Z" fill="#77FFCE"/>
<path d="M844.8 153.6H768V230.4H844.8V153.6Z" fill="#77FFCE"/>
<path d="M844.8 76.8H768V153.6H844.8V76.8Z" fill="#77FFCE"/>
<path d="M844.8 0H768V76.8H844.8V0Z" fill="#77FFCE"/>
<path d="M768 76.8H691.2V153.6H768V76.8Z" fill="#77FFCE"/>
<path d="M768 0H691.2V76.8H768V0Z" fill="#BAFFE6"/>
<path d="M614.4 76.8H537.6V153.6H614.4V76.8Z" fill="#77FFCE"/>
<path d="M614.4 0H537.6V76.8H614.4V0Z" fill="#77FFCE"/>
<path d="M537.6 76.8H460.8V153.6H537.6V76.8Z" fill="#77FFCE"/>
<path d="M460.8 0H384V76.8H460.8V0Z" fill="#77FFCE"/>
<path d="M384 153.6H307.2V230.4H384V153.6Z" fill="#BAFFE6"/>
<path d="M384 76.8H307.2V153.6H384V76.8Z" fill="#77FFCE"/>
<path d="M384 0H307.2V76.8H384V0Z" fill="#77FFCE"/>
<path d="M307.2 76.8H230.4V153.6H307.2V76.8Z" fill="#77FFCE"/>
<path d="M307.2 0H230.4V76.8H307.2V0Z" fill="#77FFCE"/>
<path d="M230.4 0H153.6V76.8H230.4V0Z" fill="#77FFCE"/>
<path d="M153.6 153.6H76.8V230.4H153.6V153.6Z" fill="#77FFCE"/>
<path d="M153.6 76.8H76.8V153.6H153.6V76.8Z" fill="#77FFCE"/>
<path d="M76.8 307.2H0V384H76.8V307.2Z" fill="#77FFCE"/>
<path d="M76.8 0H0V76.8H76.8V0Z" fill="#BAFFE6"/>
</svg>
