<svg xmlns="http://www.w3.org/2000/svg" width="978" height="305" fill="none"><path fill="#03452E" d="m537.688 0-37.244 44.385 10.133 8.503 37.244-44.385L537.688 0ZM483.418 15.513l-4.024 22.826 13.026 2.297 4.025-22.827-13.027-2.296ZM548.276 48.211l-32.666 11.89 4.524 12.43L552.8 60.64l-4.524-12.43ZM730.182 157.022c3.848-7.035 12.466-15.372 31.796-16.054 19.34-.671 28.519 7.045 32.848 13.789 2.696 4.219-.29 9.76-5.301 9.941l-26.685.932-26.686.931c-5 .171-8.377-5.15-5.982-9.539h.01Zm13.428 33.419 86.54-3.016-2.044-58.652-13.228.461-.461-13.228-26.445.922-.461-13.227-52.89 1.843.461 13.228-26.445.922.461 13.227-13.228.461.922 26.445-13.228.461 1.824 52.209 13.228-.461.922 26.445 13.227-.461.461 13.228 26.445-.922.461 13.228 52.891-1.844-.461-13.228 26.445-.922-.461-13.227 13.227-.461-.952-27.457-13.227.46c-26.445.922-25.123 19.211-55.646 20.273-15.933.551-35.655-7.576-36.126-21.144-.32-9.149 6.604-15.162 17.788-15.553v-.01ZM0 112.96l39.482-4.149 2.766 26.315 13.158-1.383-1.383-13.157 13.157-1.383-1.383-13.158 52.309-5.501 1.383 13.157 13.157-1.383 2.766 26.315 13.158-1.383 12.375 117.736-39.482 4.148-9.079-86.37c-1.954-18.558-15.913-31.415-36.165-29.291-20.252 2.135-31.255 17.617-29.311 36.176l9.079 86.37-39.483 4.148L0 112.96ZM526.588 102.338l39.672 1.383-.922 26.445 13.228.461.461-13.228 13.227.461.461-13.228 52.56 1.834-.461 13.228 13.228.461-.922 26.445 13.227.461-4.128 118.316-39.673-1.382 3.026-86.791c.652-18.649-11.383-33.33-31.736-34.041-20.342-.712-33.41 13.097-34.061 31.746l-3.026 86.791-39.673-1.383 5.522-157.979h-.01ZM884.213 248.763l-26.456-.922.461-13.228-13.227-.461.992-28.469 18.298.641c27.798.972 18.639 20.343 51.517 21.495 11.875.421 21.545-4.349 21.886-14.179.291-8.478-6.694-12.466-18.188-14.22l-29.692-4.77c-29.712-4.77-42.619-23.89-41.997-41.517l.841-24.07 13.228.461.461-13.227 26.455.922.461-13.228 49.493 1.734-.461 13.227 26.455.922-.461 13.228 13.228.461-.972 27.798-10.191-.361c-34.562-1.203-26.415-20.944-58.292-22.056-13.889-.481-21.875 4.319-22.136 11.784-.29 8.478 5.732 10.713 18.569 12.867l30.734 4.8c27.678 4.369 40.254 23.459 39.482 45.505l-.862 24.742-13.227-.461-.461 13.227-26.455-.922-.461 13.228-49.493-1.734.461-13.227.01.01ZM288.651 251.759c-6.403 7.055-15.261 11.985-25.984 13.117-10.712 1.123-20.402-1.853-28.128-7.415-9.58-6.684-16.415-17.186-17.727-29.712-1.323-12.516 3.176-24.2 11.143-32.728 6.403-7.065 15.262-11.995 25.994-13.128 10.732-1.132 20.433 1.854 28.169 7.436 9.56 6.694 16.374 17.176 17.687 29.692 1.322 12.526-3.177 24.21-11.154 32.738h.01-.01Zm35.084-61.518-2.766-26.315-13.158 1.383-1.383-13.158-26.314 2.766-1.383-13.157-57.36 6.032 1.383 13.158-26.315 2.766 1.383 13.157-13.157 1.383 2.765 26.315-13.157 1.383 5.461 51.948 13.158-1.383 2.766 26.315 13.157-1.383 1.383 13.157 26.315-2.765L237.896 305l57.359-6.033-1.383-13.157 26.315-2.766-1.383-13.157 13.158-1.383-2.766-26.315 13.157-1.383-5.461-51.948-13.157 1.383ZM451.33 176.663c-7.325 6.102-16.775 9.75-27.547 9.369-10.762-.381-19.942-4.67-26.826-11.263-8.558-7.957-13.869-19.301-13.428-31.897.441-12.576 6.514-23.519 15.593-30.864 7.325-6.103 16.795-9.75 27.567-9.38 10.782.381 19.972 4.68 26.856 11.294 8.538 7.956 13.829 19.29 13.388 31.866-.441 12.586-6.514 23.529-15.603 30.865v.01Zm43.311-56.027.922-26.445-13.228-.461.461-13.228-26.455-.922.461-13.227-57.65-2.014-.461 13.227-26.455-.922-.461 13.228-13.228-.461-.922 26.445-13.227-.461-1.824 52.199 13.227.461-.922 26.445 13.228.461-.461 13.227 26.455.922-.461 13.228 57.65 2.014.461-13.228 26.455.922.461-13.227 13.228.461.922-26.445 13.227.461 1.824-52.199-13.227-.461Z"/></svg>