<svg xmlns="http://www.w3.org/2000/svg" width="78" height="57" fill="none"><path fill="#03452E" d="M8.303 43.853v-4.138H4.152v-4.139H0v-20.69h4.152v-4.139h4.151V6.61H53.97v4.138h4.151v4.139h4.152V35.577h-4.152v4.138h-4.15v4.138H33.211v12.414h-4.151V52.13h-4.152v-4.138h-4.151v-4.138H8.303Z"/><path fill="#F3FFFB" d="M16.825 32.082h-2.762v-1.38h-1.38V27.95H11.3v-5.437h1.381V19.76h1.381v-1.374h2.762v-1.38h6.02v1.38h2.762v1.374h1.38v2.753h1.382v5.437h-1.381v2.753h-1.381v1.38h-2.762v1.373h-6.02v-1.373Zm3.01-2.506c2.48 0 4.284-1.943 4.284-4.345 0-2.397-1.805-4.34-4.284-4.34-2.48 0-4.284 1.943-4.284 4.34 0 2.402 1.805 4.345 4.284 4.345ZM39.427 32.085h-2.762v-1.38h-1.38v-2.752h-1.382v-5.438h1.381v-2.753h1.381V18.39h2.762v-1.38h6.02v1.38h2.762v1.373h1.381v2.753h1.381v5.438h-1.38v2.753h-1.382v1.38h-2.762v1.373h-6.02v-1.374Zm3.01-2.506c2.48 0 4.285-1.942 4.285-4.345 0-2.397-1.805-4.34-4.285-4.34-2.48 0-4.284 1.943-4.284 4.34 0 2.402 1.805 4.345 4.284 4.345Z"/><path fill="#03452E" d="m76.619 3.529-8.672 4.99 1.38 2.385L78 5.914l-1.381-2.385ZM64.69 0l-1.958 5.36 2.596.941 1.957-5.36L64.689 0ZM69.95 14.238l-.479 2.712 7.044 1.238.48-2.712-7.044-1.238Z"/></svg>