<svg width="24" height="24" viewBox="0 0 24 24" fill="none" xmlns="http://www.w3.org/2000/svg">
<rect x="5" y="9" width="6" height="2" transform="rotate(90 5 9)" fill="#03452E"/>
<rect width="2" height="2" transform="matrix(-4.37114e-08 1 1 4.37114e-08 7 4)" fill="#03452E"/>
<rect width="2" height="2" transform="matrix(-4.37114e-08 1 1 4.37114e-08 4 7)" fill="#03452E"/>
<rect width="2" height="2" transform="matrix(-4.37114e-08 1 1 4.37114e-08 5 5)" fill="#03452E"/>
<rect x="19" y="5" width="2" height="2" transform="rotate(90 19 5)" fill="#03452E"/>
<rect x="17" y="4" width="2" height="2" transform="rotate(90 17 4)" fill="#03452E"/>
<rect x="20" y="7" width="2" height="2" transform="rotate(90 20 7)" fill="#03452E"/>
<rect width="2" height="2" transform="matrix(4.37114e-08 -1 -1 -4.37114e-08 19 19)" fill="#03452E"/>
<rect width="2" height="2" transform="matrix(4.37114e-08 -1 -1 -4.37114e-08 17 20)" fill="#03452E"/>
<rect width="2" height="2" transform="matrix(4.37114e-08 -1 -1 -4.37114e-08 20 17)" fill="#03452E"/>
<rect x="5" y="19" width="2" height="2" transform="rotate(-90 5 19)" fill="#03452E"/>
<rect x="7" y="20" width="2" height="2" transform="rotate(-90 7 20)" fill="#03452E"/>
<rect x="4" y="17" width="2" height="2" transform="rotate(-90 4 17)" fill="#03452E"/>
<rect x="21" y="9" width="6" height="2" transform="rotate(90 21 9)" fill="#03452E"/>
<rect x="9" y="3" width="6" height="2" fill="#03452E"/>
<rect x="9" y="19" width="6" height="2" fill="#03452E"/>
<rect x="13" y="16.5" width="2" height="2" transform="rotate(-180 13 16.5)" fill="#03452E"/>
<rect x="13" y="14.5" width="2" height="2" transform="rotate(-180 13 14.5)" fill="#03452E"/>
<rect x="13" y="13.5" width="2" height="2" transform="rotate(-180 13 13.5)" fill="#03452E"/>
<rect x="13" y="9.5" width="2" height="2" transform="rotate(-180 13 9.5)" fill="#03452E"/>
</svg>
